<?xml version="1.0" standalone="no"?><!DOCTYPE svg PUBLIC "-//W3C//DTD SVG 1.1//EN" "http://www.w3.org/Graphics/SVG/1.1/DTD/svg11.dtd"><svg t="1522651178831" class="icon" style="" viewBox="0 0 1024 1024" version="1.1" xmlns="http://www.w3.org/2000/svg" p-id="3962" xmlns:xlink="http://www.w3.org/1999/xlink" width="48" height="48"><defs><style type="text/css"></style></defs><path d="M622.816 702.72c-22.112-3.52-22.624-64.32-22.624-64.32s64.96-64.32 79.136-150.816c38.08 0 61.632-91.936 23.52-124.288C704.448 329.28 751.808 96 512 96c-239.808 0-192.448 233.28-190.88 267.328-38.08 32.352-14.56 124.288 23.52 124.288 14.144 86.496 79.136 150.816 79.136 150.816s-0.512 60.8-22.624 64.32C329.952 714.08 64 831.36 64 960l448 0 448 0C960 831.36 694.048 714.08 622.816 702.72z" p-id="3963" fill="#ffffff"></path></svg>